<svg xmlns="http://www.w3.org/2000/svg" width="113.5" height="100.5" viewBox="0 0 113.5 100.5">
  <g id="Komponente_3_1" data-name="Komponente 3 – 1" transform="translate(0 2)">
    <g id="Pfad_1" data-name="Pfad 1" transform="translate(0 15.5)" fill="none">
      <path d="M41.5,0A41.5,41.5,0,1,1,0,41.5,41.5,41.5,0,0,1,41.5,0Z" stroke="none"/>
      <path d="M 41.5 4 C 36.43577194213867 4 31.52514266967773 4.990943908691406 26.904541015625 6.945297241210938 C 22.43954467773438 8.833831787109375 18.42872619628906 11.53826904296875 14.98349761962891 14.98349761962891 C 11.53826904296875 18.42872619628906 8.833831787109375 22.43954467773438 6.945297241210938 26.904541015625 C 4.990943908691406 31.52514266967773 4 36.43577194213867 4 41.5 C 4 46.56422805786133 4.990943908691406 51.47485733032227 6.945297241210938 56.095458984375 C 8.833831787109375 60.56045532226562 11.53826904296875 64.57127380371094 14.98349761962891 68.01650238037109 C 18.42872619628906 71.46173095703125 22.43954467773438 74.16616821289062 26.904541015625 76.05470275878906 C 31.52514266967773 78.00905609130859 36.43577194213867 79 41.5 79 C 46.56422805786133 79 51.47485733032227 78.00905609130859 56.095458984375 76.05470275878906 C 60.56045532226562 74.16616821289062 64.57127380371094 71.46173095703125 68.01650238037109 68.01650238037109 C 71.46173095703125 64.57127380371094 74.16616821289062 60.56045532226562 76.05470275878906 56.095458984375 C 78.00905609130859 51.47485733032227 79 46.56422805786133 79 41.5 C 79 36.43577194213867 78.00905609130859 31.52514266967773 76.05470275878906 26.904541015625 C 74.16616821289062 22.43954467773438 71.46173095703125 18.42872619628906 68.01650238037109 14.98349761962891 C 64.57127380371094 11.53826904296875 60.56045532226562 8.833831787109375 56.095458984375 6.945297241210938 C 51.47485733032227 4.990943908691406 46.56422805786133 4 41.5 4 M 41.5 0 C 64.41981506347656 0 83 18.58018493652344 83 41.5 C 83 64.41981506347656 64.41981506347656 83 41.5 83 C 18.58018493652344 83 0 64.41981506347656 0 41.5 C 0 18.58018493652344 18.58018493652344 0 41.5 0 Z" stroke="none" fill="#707070"/>
    </g>
    <line id="Linie_37" data-name="Linie 37" y1="31" x2="43" transform="translate(68.5)" fill="none" stroke="#707070" stroke-width="4"/>
    <line id="Linie_44" data-name="Linie 44" y1="31" x2="43" transform="translate(68.5)" fill="none" stroke="#707070" stroke-width="4"/>
    <line id="Linie_38" data-name="Linie 38" y1="34" transform="translate(111.5)" fill="none" stroke="#4426f1" stroke-width="4"/>
    <line id="Linie_46" data-name="Linie 46" y1="34" transform="translate(111.5)" fill="none" stroke="#707070" stroke-width="4"/>
    <line id="Linie_45" data-name="Linie 45" x2="43" transform="translate(69.5)" fill="none" stroke="#707070" stroke-width="4"/>
  </g>
</svg>
